<svg width="18" height="18" xmlns="http://www.w3.org/2000/svg" xmlns:xlink="http://www.w3.org/1999/xlink" xml:space="preserve" overflow="hidden"><g transform="translate(-289 -483)"><path d="M298.375 495.975 298.375 496.969 297.625 496.969 297.625 495.975C297.194 495.825 296.875 495.413 296.875 494.906 296.875 494.288 297.381 493.781 298 493.781 298.619 493.781 299.125 494.288 299.125 494.906 299.125 495.394 298.806 495.806 298.375 495.975ZM295.188 489.094C295.188 487.538 296.444 486.281 298 486.281 299.556 486.281 300.812 487.538 300.812 489.094L300.812 491.175 298 490.969 295.188 491.175 295.188 489.094ZM301.938 491.25 301.938 489.094C301.938 486.919 300.175 485.156 298 485.156 295.825 485.156 294.062 486.919 294.062 489.094L294.062 491.25 292.75 491.344 292.75 498.469 298 498.844 303.25 498.469 303.25 491.344 301.938 491.25Z" fill="#FF0000"/></g></svg>