<svg width="1920" height="267" viewBox="0 0 1920 267" fill="none" xmlns="http://www.w3.org/2000/svg">
<g clip-path="url(#clip0_1175_4911)">
<g filter="url(#filter0_b_1175_4911)">
<mask id="path-1-inside-1_1175_4911" fill="white">
<path fill-rule="evenodd" clip-rule="evenodd" d="M1920 -183C1920 -188.657 1920 -191.485 1918.24 -193.243C1916.49 -195 1913.66 -195 1908 -195H12C6.34315 -195 3.51472 -195 1.75736 -193.243C0 -191.485 0 -188.657 0 -183V224C0 229.657 0 232.485 1.75736 234.243C3.51472 236 6.34315 236 12 236H917.39C922.134 236 924.506 236 926.006 236.986C927.507 237.972 928.847 241.076 931.528 247.283C936.285 258.294 947.243 266 960 266C972.757 266 983.715 258.294 988.472 247.283C991.153 241.076 992.493 237.972 993.994 236.986C995.494 236 997.866 236 1002.61 236H1908C1913.66 236 1916.49 236 1918.24 234.243C1920 232.485 1920 229.657 1920 224V-183Z"/>
</mask>
<path d="M1918.24 234.243L1917.54 233.536L1918.24 234.243ZM926.006 236.986L925.457 237.822L926.006 236.986ZM1.75736 234.243L2.46447 233.536L1.75736 234.243ZM1918.24 -193.243L1918.95 -193.95L1918.24 -193.243ZM988.472 247.283L987.554 246.886L988.472 247.283ZM993.994 236.986L994.543 237.822L993.994 236.986ZM1.75736 -193.243L1.05025 -193.95L1.75736 -193.243ZM12 -194H1908V-196H12V-194ZM1 224V-183H-1V224H1ZM917.39 235H12V237H917.39V235ZM960 265C947.656 265 937.051 257.544 932.446 246.886L930.61 247.679C935.52 259.044 946.83 267 960 267V265ZM987.554 246.886C982.949 257.544 972.344 265 960 265V267C973.17 267 984.48 259.044 989.39 247.679L987.554 246.886ZM1908 235H1002.61V237H1908V235ZM1919 -183V224H1921V-183H1919ZM1908 237C1910.8 237 1913 237.002 1914.72 236.771C1916.46 236.537 1917.85 236.045 1918.95 234.95L1917.54 233.536C1916.87 234.197 1915.97 234.584 1914.45 234.789C1912.9 234.998 1910.86 235 1908 235V237ZM1919 224C1919 226.857 1919 228.899 1918.79 230.45C1918.58 231.973 1918.2 232.874 1917.54 233.536L1918.95 234.95C1920.05 233.854 1920.54 232.462 1920.77 230.717C1921 229.001 1921 226.8 1921 224H1919ZM917.39 237C919.781 237 921.507 237.001 922.825 237.119C924.141 237.237 924.913 237.464 925.457 237.822L926.556 236.151C925.6 235.522 924.435 235.256 923.004 235.127C921.575 234.999 919.743 235 917.39 235V237ZM932.446 246.886C931.112 243.796 930.091 241.432 929.215 239.721C928.36 238.051 927.549 236.804 926.556 236.151L925.457 237.822C925.964 238.155 926.574 238.952 927.434 240.633C928.274 242.271 929.264 244.562 930.61 247.679L932.446 246.886ZM-1 224C-1 226.8 -1.00212 229.001 -0.771413 230.717C-0.536834 232.462 -0.0451961 233.854 1.05025 234.95L2.46447 233.536C1.80256 232.874 1.41551 231.973 1.21075 230.45C1.00212 228.899 1 226.857 1 224H-1ZM12 235C9.14332 235 7.10139 234.998 5.54962 234.789C4.02662 234.584 3.12638 234.197 2.46447 233.536L1.05025 234.95C2.1457 236.045 3.53835 236.537 5.28313 236.771C6.99914 237.002 9.19986 237 12 237V235ZM1908 -194C1910.86 -194 1912.9 -193.998 1914.45 -193.789C1915.97 -193.584 1916.87 -193.197 1917.54 -192.536L1918.95 -193.95C1917.85 -195.045 1916.46 -195.537 1914.72 -195.771C1913 -196.002 1910.8 -196 1908 -196V-194ZM1921 -183C1921 -185.8 1921 -188.001 1920.77 -189.717C1920.54 -191.462 1920.05 -192.854 1918.95 -193.95L1917.54 -192.536C1918.2 -191.874 1918.58 -190.973 1918.79 -189.45C1919 -187.899 1919 -185.857 1919 -183H1921ZM989.39 247.679C990.736 244.562 991.726 242.271 992.566 240.633C993.426 238.952 994.036 238.155 994.543 237.822L993.444 236.151C992.451 236.804 991.64 238.051 990.785 239.721C989.909 241.432 988.888 243.796 987.554 246.886L989.39 247.679ZM1002.61 235C1000.26 235 998.425 234.999 996.996 235.127C995.565 235.256 994.4 235.522 993.444 236.151L994.543 237.822C995.087 237.464 995.859 237.237 997.175 237.119C998.493 237.001 1000.22 237 1002.61 237V235ZM12 -196C9.19984 -196 6.99913 -196.002 5.28312 -195.771C3.53835 -195.537 2.1457 -195.045 1.05025 -193.95L2.46447 -192.536C3.12638 -193.197 4.02662 -193.584 5.54962 -193.789C7.10138 -193.998 9.1433 -194 12 -194V-196ZM1 -183C1 -185.857 1.00212 -187.899 1.21075 -189.45C1.41551 -190.973 1.80256 -191.874 2.46447 -192.536L1.05025 -193.95C-0.0451961 -192.854 -0.536834 -191.462 -0.771413 -189.717C-1.00212 -188.001 -1 -185.8 -1 -183H1Z" fill="url(#paint0_linear_1175_4911)" mask="url(#path-1-inside-1_1175_4911)"/>
</g>
</g>
<defs>
<filter id="filter0_b_1175_4911" x="-40" y="-235" width="2000" height="541" filterUnits="userSpaceOnUse" color-interpolation-filters="sRGB">
<feFlood flood-opacity="0" result="BackgroundImageFix"/>
<feGaussianBlur in="BackgroundImageFix" stdDeviation="20"/>
<feComposite in2="SourceAlpha" operator="in" result="effect1_backgroundBlur_1175_4911"/>
<feBlend mode="normal" in="SourceGraphic" in2="effect1_backgroundBlur_1175_4911" result="shape"/>
</filter>
<linearGradient id="paint0_linear_1175_4911" x1="946" y1="187.5" x2="928.5" y2="414.5" gradientUnits="userSpaceOnUse">
<stop stop-color="white" stop-opacity="0"/>
<stop offset="1" stop-color="#F5F5F5" stop-opacity="0.77"/>
</linearGradient>
<clipPath id="clip0_1175_4911">
<rect width="1920" height="267" fill="white"/>
</clipPath>
</defs>
</svg>
