<svg width="143" height="139" viewBox="0 0 143 139" fill="none" xmlns="http://www.w3.org/2000/svg">
<g filter="url(#filter0_f_102_11111)">
<path d="M95.35 78.2668C96.217 77.2928 100.683 79.8496 105.32 83.9799C109.957 88.1102 113.016 92.2507 112.166 93.2294C111.316 94.2081 106.834 91.6423 102.197 87.512C97.5599 83.3817 94.496 79.2443 95.35 78.2668Z" fill="url(#paint0_linear_102_11111)"/>
<path d="M58.6275 45.5842C59.4975 44.6085 56.4374 40.4652 51.7925 36.3298C47.1477 32.1945 42.6771 29.6331 41.8072 30.6088C40.9372 31.5845 43.9973 35.7279 48.6421 39.8632C53.2869 43.9985 57.7575 46.5599 58.6275 45.5842Z" fill="url(#paint1_linear_102_11111)"/>
<path d="M95.4554 78.1878C95.5459 78.1278 95.6503 78.0917 95.7586 78.0828C95.6522 78.0998 95.5495 78.1354 95.4554 78.1878Z" fill="#5D5D5D"/>
<path style="mix-blend-mode:color" d="M31.9095 72.3674C31.5211 70.7892 31.2162 69.1916 30.9961 67.5814C30.8276 66.3485 30.7223 65.1232 30.6371 63.8754C30.0815 54.4751 32.3688 45.1264 37.2017 37.0448C37.8655 35.9418 38.5772 34.8516 39.3376 33.7884C39.9853 32.8906 40.6677 32.0084 41.3848 31.1417C41.3953 31.1026 41.4394 31.0771 41.4618 31.0459C41.5593 30.9007 41.6705 30.7651 41.794 30.6412C40.9875 31.6501 44.0387 35.7653 48.6466 39.8646C53.2546 43.9638 57.7564 46.5628 58.6278 45.5899C58.6526 45.561 58.6737 45.5291 58.6905 45.4949C58.6065 45.6471 58.5044 45.7887 58.3864 45.9165C54.4845 50.8444 52.6219 57.0802 53.1819 63.3406C53.7419 69.6011 56.682 75.4101 61.3971 79.5723C66.1122 83.7345 72.2437 85.9334 78.53 85.7164C84.8163 85.4995 90.7792 82.8832 95.1917 78.406C95.2654 78.3226 95.3535 78.2532 95.4518 78.2009C95.4183 78.225 95.3875 78.2527 95.3598 78.2833C94.4927 79.2574 97.5468 83.3967 102.205 87.5328C106.864 91.669 111.281 94.2031 112.168 93.2578C112.147 93.2866 112.123 93.3129 112.096 93.3363C111.452 93.9976 110.815 94.6372 110.148 95.2643C109.384 95.9913 108.601 96.671 107.801 97.3231C106.858 98.0951 105.894 98.8197 104.885 99.5086C97.6392 104.562 89.1327 107.508 80.3103 108.02C78.9771 108.1 77.643 108.126 76.3079 108.098C74.1005 108.033 71.9 107.815 69.7225 107.447C66.0725 106.848 62.5065 105.817 59.0998 104.377C54.4333 102.403 50.124 99.6749 46.3451 96.3012C39.2075 89.9716 34.1741 81.6155 31.9185 72.3512L31.9095 72.3674Z" fill="url(#paint2_linear_102_11111)"/>
<g style="mix-blend-mode:color">
<path d="M95.3499 78.2668C95.3776 78.2361 95.4085 78.2085 95.442 78.1843C95.5361 78.1319 95.6387 78.0963 95.7452 78.0792C95.7699 78.0695 95.7965 78.0655 95.8229 78.0675L95.9509 78.0598C95.9646 78.0662 95.9793 78.0701 95.9944 78.0715L96.1481 78.0894C96.1942 78.0966 96.2394 78.1087 96.2829 78.1255C98.018 78.4181 101.613 80.7134 105.312 84.0103C108.903 87.2082 111.551 90.4096 112.152 92.1498C112.249 92.3869 112.293 92.6418 112.283 92.8974C112.276 92.9405 112.265 92.9828 112.249 93.0234C112.247 93.0582 112.238 93.0921 112.222 93.1234C112.204 93.1594 112.184 93.1944 112.162 93.2282C112.161 93.2388 112.158 93.249 112.154 93.2587C111.266 94.204 106.818 91.6474 102.191 87.5337C97.5636 83.4199 94.4959 79.2443 95.3499 78.2668Z" fill="url(#paint3_linear_102_11111)" style="mix-blend-mode:color"/>
<path d="M95.3499 78.2668C95.3776 78.2361 95.4085 78.2085 95.442 78.1843C95.5361 78.1319 95.6387 78.0963 95.7452 78.0792C95.7699 78.0695 95.7965 78.0655 95.8229 78.0675L95.9509 78.0598C95.9646 78.0662 95.9793 78.0701 95.9944 78.0715L96.1481 78.0894C96.1942 78.0966 96.2394 78.1087 96.2829 78.1255C98.018 78.4181 101.613 80.7134 105.312 84.0103C108.903 87.2082 111.551 90.4096 112.152 92.1498C112.249 92.3869 112.293 92.6418 112.283 92.8974C112.276 92.9405 112.265 92.9828 112.249 93.0234C112.247 93.0582 112.238 93.0921 112.222 93.1234C112.204 93.1594 112.184 93.1944 112.162 93.2282C112.161 93.2388 112.158 93.249 112.154 93.2587C111.266 94.204 106.818 91.6474 102.191 87.5337C97.5636 83.4199 94.4959 79.2443 95.3499 78.2668Z" fill="url(#paint4_linear_102_11111)" style="mix-blend-mode:color"/>
<path d="M95.3499 78.2668C95.3776 78.2361 95.4085 78.2085 95.442 78.1843C95.5361 78.1319 95.6387 78.0963 95.7452 78.0792C95.7699 78.0695 95.7965 78.0655 95.8229 78.0675L95.9509 78.0598C95.9646 78.0662 95.9793 78.0701 95.9944 78.0715L96.1481 78.0894C96.1942 78.0966 96.2394 78.1087 96.2829 78.1255C98.018 78.4181 101.613 80.7134 105.312 84.0103C108.903 87.2082 111.551 90.4096 112.152 92.1498C112.249 92.3869 112.293 92.6418 112.283 92.8974C112.276 92.9405 112.265 92.9828 112.249 93.0234C112.247 93.0582 112.238 93.0921 112.222 93.1234C112.204 93.1594 112.184 93.1944 112.162 93.2282C112.161 93.2388 112.158 93.249 112.154 93.2587C111.266 94.204 106.818 91.6474 102.191 87.5337C97.5636 83.4199 94.4959 79.2443 95.3499 78.2668Z" fill="url(#paint5_linear_102_11111)" style="mix-blend-mode:color"/>
</g>
<path style="mix-blend-mode:color" d="M41.794 30.6412C41.8584 30.5717 41.9353 30.5148 42.0207 30.4737C42.0708 30.4495 42.1253 30.4355 42.1809 30.4328C43.5844 30.1707 47.6234 32.6177 51.7888 36.3329C56.049 40.1294 58.9755 43.9271 58.7531 45.2788C58.7462 45.3479 58.7281 45.4154 58.6996 45.4787C58.6828 45.5129 58.6617 45.5448 58.6369 45.5737C57.7654 46.5466 53.2958 43.9842 48.6557 39.8484C44.0156 35.7126 40.9875 31.6501 41.794 30.6412Z" fill="url(#paint6_linear_102_11111)"/>
<path style="mix-blend-mode:color-dodge" d="M109.336 94.6435C109.857 94.0296 106.424 90.2646 101.668 86.2342C96.9126 82.2038 92.6348 79.4342 92.1138 80.0481C91.5928 80.6621 95.0258 84.427 99.7817 88.4574C104.538 92.4878 108.815 95.2574 109.336 94.6435Z" fill="url(#paint7_radial_102_11111)"/>
<path style="mix-blend-mode:color-dodge" d="M47.8033 40.4538C44.1336 37.3419 41.4182 34.5136 41.7391 34.1338C42.06 33.754 45.2978 35.9723 48.9675 39.0842C52.6372 42.1961 55.3526 45.0244 55.0329 45.3999C54.7131 45.7753 51.5003 43.5683 47.8033 40.4538Z" fill="url(#paint8_radial_102_11111)"/>
<mask id="mask0_102_11111" style="mask-type:luminance" maskUnits="userSpaceOnUse" x="30" y="30" width="83" height="79">
<path d="M31.9354 72.3745C31.5484 70.7965 31.245 69.1993 31.0263 67.5895C30.8578 66.3567 30.7526 65.1314 30.663 63.8824C30.1073 54.4821 32.3946 45.1335 37.2275 37.0518C37.8914 35.9488 38.6074 34.8597 39.3678 33.7966C40.0097 32.8973 40.6921 32.015 41.415 31.1499C41.4383 31.1161 41.4641 31.0841 41.492 31.054C41.5882 30.9087 41.698 30.7728 41.8198 30.6482C41.0134 31.6571 44.0646 35.7724 48.6725 39.8716C53.2805 43.9708 57.7823 46.5698 58.6537 45.5969C58.6803 45.5694 58.7016 45.5372 58.7164 45.5019C58.6341 45.6545 58.5335 45.7965 58.4167 45.9246C55.1784 49.9847 53.3154 54.9684 53.0966 60.1566C52.8778 65.3447 54.3146 70.4689 57.1995 74.7895C60.0844 79.1101 64.2682 82.4037 69.147 84.1947C74.0259 85.9858 79.3474 86.1818 84.3435 84.7544C88.4558 83.612 92.2028 81.4282 95.2219 78.4142C95.2932 78.3282 95.3818 78.2583 95.482 78.2091C95.4471 78.2327 95.4149 78.26 95.3857 78.2904C94.5186 79.2644 97.5727 83.4037 102.231 87.5399C106.89 91.676 111.307 94.2102 112.194 93.2648C112.173 93.2927 112.15 93.3193 112.126 93.3445C111.483 94.0058 110.845 94.6454 110.178 95.2725C109.41 95.9983 108.627 96.678 107.827 97.3302C106.884 98.1021 105.92 98.8267 104.932 99.5215C97.6877 104.573 89.1831 107.519 80.3622 108.034C79.0262 108.114 77.692 108.14 76.3599 108.112C74.1436 108.045 71.9344 107.825 69.7484 107.454C66.0998 106.855 62.5353 105.825 59.13 104.385C54.4632 102.412 50.1538 99.6836 46.3753 96.3094C39.2337 89.982 34.1982 81.6246 31.9444 72.3582L31.9354 72.3745Z" fill="white"/>
</mask>
<g mask="url(#mask0_102_11111)">
<g style="mix-blend-mode:color-dodge" opacity="0.31">
<mask id="mask1_102_11111" style="mask-type:luminance" maskUnits="userSpaceOnUse" x="28" y="56" width="89" height="52">
<path d="M61.6854 105.619C46.7545 101.507 37.1746 88.5248 32.6029 77.2437C27.8507 65.8536 28.111 56.1652 28.661 56.0611C29.7084 55.4754 31.0999 64.0273 36.4161 73.6262C41.5912 83.2293 50.6855 93.8824 64.0249 97.6011C77.2249 101.753 90.7212 97.6652 100.326 92.1808C110.043 86.8009 115.859 80.0405 116.422 81.123C116.82 81.5183 111.765 90.1874 101.562 97.3795C91.5551 104.61 76.4354 110.354 61.6854 105.619Z" fill="white"/>
</mask>
<g mask="url(#mask1_102_11111)">
<path d="M61.6913 105.597C46.8486 101.504 37.2973 88.6415 32.7218 77.4618C27.9656 66.1731 28.1797 56.5702 28.7266 56.4606C29.7708 55.8694 31.1899 64.3356 36.5009 73.8492C41.6808 83.3651 50.7494 93.9228 64.0105 97.6205C77.1421 101.749 90.5565 97.7235 100.121 92.3214C109.789 87.0171 115.594 80.3329 116.135 81.4466C116.531 81.8462 111.485 90.4151 101.336 97.5099C91.3974 104.642 76.3567 110.3 61.6913 105.597Z" fill="black"/>
<path d="M61.7421 105.425C47.6009 101.514 38.3083 89.5832 33.6847 79.1917C28.9043 68.707 28.7874 59.7653 29.3265 59.5977C30.2999 58.9922 31.9442 66.7921 37.2429 75.6038C42.4176 84.4428 51.2592 94.2644 63.9595 97.7932C76.5381 101.741 89.3609 98.2183 98.5401 93.435C107.817 88.7384 113.446 82.7803 113.929 83.869C114.279 84.3028 109.316 92.0884 99.5814 98.4743C90.0323 104.882 75.72 109.892 61.7421 105.425Z" fill="black"/>
<path d="M61.7933 105.252C48.3417 101.517 39.3345 90.4869 34.6928 80.8591C29.9093 71.1514 29.4988 62.853 30.0222 62.6393C30.9293 62.0206 32.7633 69.182 38.024 77.3175C43.1864 85.4545 51.7743 94.57 63.912 97.9713C75.9562 101.739 88.1552 98.6823 96.9446 94.4839C105.826 90.3427 111.268 85.0842 111.688 86.1424C112.027 86.6153 107.136 93.6469 97.826 99.3546C88.6804 105.074 75.0924 109.486 61.7933 105.252Z" fill="black"/>
<path d="M61.844 105.079C49.0852 101.526 40.3695 91.3558 35.7352 82.466C30.984 73.5075 30.3087 65.8322 30.8142 65.581C31.658 64.9547 33.6487 71.4967 38.8503 78.9829C43.9634 86.4686 52.3017 94.8977 63.8608 98.144C75.3303 101.725 86.9474 99.118 95.3475 95.4674C103.82 91.8965 109.057 87.2447 109.42 88.2735C109.702 88.7684 104.951 95.1016 96.069 100.169C87.3359 105.254 74.4687 109.082 61.844 105.079Z" fill="black"/>
<path d="M61.895 104.907C49.8203 101.532 41.4142 92.19 36.8171 84.0134C32.1175 75.7674 31.2223 68.7039 31.7043 68.4185C32.4869 67.7945 34.5989 73.7448 39.7138 80.5975C44.8287 87.4503 52.8021 95.2227 63.81 98.3167C74.7288 101.708 85.7401 99.535 93.7311 96.3849C101.784 93.2981 106.828 89.2651 107.125 90.2437C107.375 90.7533 102.766 96.421 94.3225 100.894C86.0001 105.385 73.8484 108.682 61.895 104.907Z" fill="black"/>
<path d="M61.9463 104.734C50.5501 101.541 42.4715 92.9949 37.9397 85.4972C33.3081 77.9542 32.2264 71.4648 32.687 71.1551C33.4084 70.5333 35.6073 75.9153 40.6207 82.1726C45.6341 88.4299 53.3169 95.5469 63.755 98.4882C74.1084 101.728 84.5273 99.904 92.1094 97.2359C99.6915 94.5678 104.541 91.135 104.806 92.0771C105.021 92.6002 100.57 97.6398 92.5664 101.55C84.6782 105.483 73.2371 108.286 61.9463 104.734Z" fill="black"/>
<path d="M61.997 104.561C51.2718 101.543 43.54 93.7563 39.0911 86.9236C34.5621 80.0416 33.3191 74.1192 33.754 73.7839C34.7657 72.5831 43.648 93.1099 63.7039 98.6608C83.5624 104.983 102.259 92.2235 102.469 93.7704C102.657 94.2865 98.3803 98.7299 90.8241 102.136C83.3782 105.549 72.6241 107.893 61.997 104.561Z" fill="black"/>
<path d="M62.0479 104.389C51.9883 101.549 44.6125 94.4862 40.2511 88.3011C35.8622 82.0621 34.4792 76.6797 34.8859 76.3276C35.8393 75.1531 44.7648 93.6048 63.6341 98.8518C82.3139 104.789 99.9438 93.8343 100.093 95.3321C100.25 95.8401 96.16 99.7606 89.0589 102.669C82.0616 105.573 72.02 107.503 62.0479 104.389Z" fill="#010101"/>
<path d="M62.0958 104.211C52.7004 101.553 45.6988 95.1825 41.497 89.5851C37.2951 83.9877 35.7762 79.0953 36.1579 78.7318C37.051 77.5737 45.9314 94.071 63.6109 99.0085C81.1288 104.532 97.6348 95.2837 97.7573 96.7231C97.8844 97.223 94.0016 100.631 87.3513 103.092C80.7011 105.553 71.4203 107.114 62.0958 104.211Z" fill="#020202"/>
<path d="M62.1508 104.02C44.3773 98.8947 36.4584 81.5931 37.4814 81.0288C38.3068 79.9318 47.0732 94.5401 63.5629 99.1681C79.9068 104.288 95.2946 96.6037 95.3843 97.9738C95.4854 98.4667 91.8202 101.392 85.629 103.446C79.4377 105.499 70.8233 106.731 62.1508 104.02Z" fill="#030303"/>
<path d="M62.1973 103.865C45.7794 99.126 37.9838 83.8696 38.881 83.253C39.6292 82.2005 48.1978 95.0417 63.5075 99.3582C78.7043 104.096 92.936 97.8208 92.9986 99.1185C93.4228 100.145 78.5419 108.878 62.1973 103.865Z" fill="#050505"/>
<path d="M62.2485 103.693C47.1732 99.3364 39.5701 85.9714 40.3559 85.3529C41.0388 84.3528 49.3259 95.5302 63.4612 99.532C77.4923 103.888 90.5823 98.8808 90.6133 100.105C90.9378 101.086 77.2586 108.292 62.2485 103.693Z" fill="#070708"/>
<path d="M62.2992 103.52C48.5491 99.5421 41.2178 87.964 41.9239 87.3474C42.5379 86.4127 50.4687 96.0321 63.4307 99.7149C76.3048 103.691 88.2407 99.8418 88.2689 100.972C88.469 101.878 75.9877 107.728 62.2992 103.52Z" fill="#0B0B0B"/>
<path d="M62.3499 103.347C49.9076 99.7431 42.9277 89.8289 43.5211 89.2147C44.0621 88.3442 51.5748 96.4962 63.3589 99.8774C75.0737 103.482 85.858 100.643 85.843 101.673C86.009 102.532 74.7413 107.124 62.3499 103.347Z" fill="#101010"/>
<path d="M62.4056 103.157C51.258 99.9233 44.7024 91.5573 45.2071 90.9613C45.6836 90.1574 52.7004 96.9935 63.2909 100.027C73.8509 103.262 83.465 101.292 83.4516 102.229C83.5822 103.046 73.5057 106.551 62.4056 103.157Z" fill="#171717"/>
<path d="M62.4517 103.002C52.5902 100.136 46.5254 93.1916 46.9521 92.6259C47.3551 91.9048 53.8156 97.5112 63.257 100.223C72.6564 103.091 81.1462 101.872 81.1007 102.703C81.1522 103.415 72.2786 105.98 62.4517 103.002Z" fill="#1F2020"/>
<path d="M62.5041 102.825C53.91 100.326 48.4102 94.6841 48.7597 94.1629C49.0991 93.5225 54.9359 98.0116 63.2052 100.4C71.4442 102.901 78.8064 102.288 78.7463 103.018C78.7575 103.654 71.0681 105.418 62.5041 102.825Z" fill="#2A2B2B"/>
<path d="M62.5506 102.651C55.1992 100.509 50.3328 96.0516 50.6213 95.584C50.9015 95.0256 56.0603 98.5132 63.1586 100.574C70.2316 102.711 76.4718 102.58 76.4059 103.192C76.3987 103.758 69.8661 104.858 62.5506 102.651Z" fill="#38393A"/>
<path d="M62.6017 102.478C56.5146 100.698 52.3352 97.2961 52.543 96.886C52.7508 96.4759 57.1825 99.0234 63.1078 100.746C69.0332 102.469 74.1493 102.741 74.0905 103.256C74.0317 103.771 68.6761 104.306 62.6017 102.478Z" fill="#4A4A4B"/>
<path d="M62.656 102.293C57.8059 100.872 54.3734 98.4058 54.5179 98.058C54.6624 97.7101 58.3221 99.5198 63.0777 100.91C67.8333 102.301 71.8681 102.763 71.797 103.168C71.7258 103.572 67.4945 103.757 62.656 102.293Z" fill="#5F6061"/>
<path d="M62.7033 102.133C59.0771 101.068 56.4407 99.4069 56.514 99.1332C56.5874 98.8594 59.4219 100.043 62.9839 101.086C66.546 102.129 69.5528 102.669 69.4724 102.969C69.3921 103.269 66.3248 103.215 62.7033 102.133Z" fill="#787A7B"/>
<path d="M62.7543 101.96C60.3478 101.25 58.5455 100.269 58.5955 100.082C58.6456 99.8953 60.5689 100.564 62.9453 101.248C65.3216 101.931 67.295 102.413 67.238 102.626C67.1809 102.839 65.1596 102.675 62.7543 101.96Z" fill="#97999A"/>
<path d="M62.8054 101.788C61.6044 101.433 60.6841 101.005 60.7098 100.909C60.7354 100.814 61.7117 101.085 62.8998 101.436C64.0878 101.787 65.0548 102.092 65.0292 102.188C65.0036 102.284 64.0065 102.142 62.8054 101.788Z" fill="#BCBEC0"/>
</g>
</g>
</g>
</g>
<path d="M95.35 77.1089C96.217 76.1348 100.683 78.6917 105.32 82.822C109.957 86.9523 113.016 91.0928 112.166 92.0715C111.316 93.0502 106.834 90.4843 102.197 86.354C97.5599 82.2237 94.496 78.0864 95.35 77.1089Z" fill="url(#paint9_linear_102_11111)"/>
<path d="M58.6275 44.4262C59.4975 43.4505 56.4374 39.3072 51.7925 35.1719C47.1477 31.0365 42.6771 28.4752 41.8072 29.4509C40.9372 30.4266 43.9973 34.5699 48.6421 38.7052C53.2869 42.8406 57.7575 45.402 58.6275 44.4262Z" fill="url(#paint10_linear_102_11111)"/>
<path d="M95.4554 77.0299C95.5459 76.9698 95.6503 76.9337 95.7586 76.9248C95.6522 76.9419 95.5495 76.9774 95.4554 77.0299Z" fill="#5D5D5D"/>
<path style="mix-blend-mode:color" d="M31.9095 71.2095C31.5211 69.6312 31.2162 68.0336 30.9961 66.4234C30.8276 65.1905 30.7223 63.9652 30.6371 62.7174C30.0815 53.3171 32.3688 43.9685 37.2017 35.8868C37.8655 34.7838 38.5772 33.6936 39.3376 32.6304C39.9853 31.7327 40.6677 30.8504 41.3848 29.9837C41.3953 29.9446 41.4394 29.9192 41.4618 29.8879C41.5593 29.7427 41.6705 29.6072 41.794 29.4832C40.9875 30.4921 44.0387 34.6074 48.6466 38.7066C53.2546 42.8059 57.7564 45.4048 58.6278 44.4319C58.6526 44.403 58.6737 44.3711 58.6905 44.3369C58.6065 44.4892 58.5044 44.6307 58.3864 44.7585C54.4845 49.6865 52.6219 55.9222 53.1819 62.1827C53.7419 68.4431 56.682 74.2521 61.3971 78.4143C66.1122 82.5765 72.2437 84.7754 78.53 84.5585C84.8163 84.3415 90.7792 81.7253 95.1917 77.248C95.2654 77.1647 95.3535 77.0952 95.4518 77.0429C95.4183 77.0671 95.3875 77.0947 95.3598 77.1254C94.4927 78.0994 97.5468 82.2388 102.205 86.3749C106.864 90.511 111.281 93.0452 112.168 92.0999C112.147 92.1286 112.123 92.1549 112.096 92.1783C111.452 92.8397 110.815 93.4793 110.148 94.1064C109.384 94.8333 108.601 95.513 107.801 96.1652C106.858 96.9371 105.894 97.6617 104.885 98.3507C97.6392 103.404 89.1327 106.35 80.3103 106.862C78.9771 106.943 77.643 106.969 76.3079 106.94C74.1005 106.875 71.9 106.657 69.7225 106.289C66.0725 105.69 62.5065 104.659 59.0998 103.219C54.4333 101.245 50.124 98.517 46.3451 95.1433C39.2075 88.8137 34.1741 80.4575 31.9185 71.1933L31.9095 71.2095Z" fill="url(#paint11_linear_102_11111)"/>
<g style="mix-blend-mode:color">
<path d="M95.3499 77.1088C95.3776 77.0782 95.4085 77.0505 95.442 77.0264C95.5361 76.9739 95.6387 76.9383 95.7452 76.9213C95.7699 76.9115 95.7965 76.9075 95.8229 76.9095L95.9509 76.9019C95.9646 76.9082 95.9793 76.9122 95.9944 76.9135L96.1481 76.9314C96.1942 76.9386 96.2394 76.9508 96.2829 76.9676C98.018 77.2601 101.613 79.5555 105.312 82.8523C108.903 86.0502 111.551 89.2517 112.152 90.9918C112.249 91.2289 112.293 91.4838 112.283 91.7395C112.276 91.7826 112.265 91.8248 112.249 91.8655C112.247 91.9002 112.238 91.9342 112.222 91.9654C112.204 92.0014 112.184 92.0364 112.162 92.0703C112.161 92.0808 112.158 92.0911 112.154 92.1007C111.266 93.046 106.818 90.4895 102.191 86.3757C97.5636 82.262 94.4959 78.0864 95.3499 77.1088Z" fill="url(#paint12_linear_102_11111)" style="mix-blend-mode:color"/>
<path d="M95.3499 77.1088C95.3776 77.0782 95.4085 77.0505 95.442 77.0264C95.5361 76.9739 95.6387 76.9383 95.7452 76.9213C95.7699 76.9115 95.7965 76.9075 95.8229 76.9095L95.9509 76.9019C95.9646 76.9082 95.9793 76.9122 95.9944 76.9135L96.1481 76.9314C96.1942 76.9386 96.2394 76.9508 96.2829 76.9676C98.018 77.2601 101.613 79.5555 105.312 82.8523C108.903 86.0502 111.551 89.2517 112.152 90.9918C112.249 91.2289 112.293 91.4838 112.283 91.7395C112.276 91.7826 112.265 91.8248 112.249 91.8655C112.247 91.9002 112.238 91.9342 112.222 91.9654C112.204 92.0014 112.184 92.0364 112.162 92.0703C112.161 92.0808 112.158 92.0911 112.154 92.1007C111.266 93.046 106.818 90.4895 102.191 86.3757C97.5636 82.262 94.4959 78.0864 95.3499 77.1088Z" fill="url(#paint13_linear_102_11111)" style="mix-blend-mode:color"/>
<path d="M95.3499 77.1088C95.3776 77.0782 95.4085 77.0505 95.442 77.0264C95.5361 76.9739 95.6387 76.9383 95.7452 76.9213C95.7699 76.9115 95.7965 76.9075 95.8229 76.9095L95.9509 76.9019C95.9646 76.9082 95.9793 76.9122 95.9944 76.9135L96.1481 76.9314C96.1942 76.9386 96.2394 76.9508 96.2829 76.9676C98.018 77.2601 101.613 79.5555 105.312 82.8523C108.903 86.0502 111.551 89.2517 112.152 90.9918C112.249 91.2289 112.293 91.4838 112.283 91.7395C112.276 91.7826 112.265 91.8248 112.249 91.8655C112.247 91.9002 112.238 91.9342 112.222 91.9654C112.204 92.0014 112.184 92.0364 112.162 92.0703C112.161 92.0808 112.158 92.0911 112.154 92.1007C111.266 93.046 106.818 90.4895 102.191 86.3757C97.5636 82.262 94.4959 78.0864 95.3499 77.1088Z" fill="url(#paint14_linear_102_11111)" style="mix-blend-mode:color"/>
</g>
<path style="mix-blend-mode:color" d="M41.794 29.4832C41.8584 29.4137 41.9353 29.3569 42.0207 29.3158C42.0708 29.2915 42.1253 29.2776 42.1809 29.2748C43.5844 29.0128 47.6234 31.4598 51.7888 35.1749C56.049 38.9714 58.9755 42.7691 58.7531 44.1209C58.7462 44.19 58.7281 44.2575 58.6996 44.3208C58.6828 44.355 58.6617 44.3869 58.6369 44.4158C57.7654 45.3886 53.2958 42.8263 48.6557 38.6905C44.0156 34.5546 40.9875 30.4921 41.794 29.4832Z" fill="url(#paint15_linear_102_11111)"/>
<path style="mix-blend-mode:color-dodge" d="M109.336 93.4855C109.857 92.8716 106.424 89.1066 101.668 85.0762C96.9126 81.0458 92.6348 78.2763 92.1138 78.8902C91.5928 79.5041 95.0258 83.2691 99.7817 87.2995C104.538 91.3299 108.815 94.0995 109.336 93.4855Z" fill="url(#paint16_radial_102_11111)"/>
<path style="mix-blend-mode:color-dodge" d="M47.8033 39.2958C44.1336 36.1839 41.4182 33.3557 41.7391 32.9759C42.06 32.5961 45.2978 34.8144 48.9675 37.9263C52.6372 41.0382 55.3526 43.8664 55.0329 44.2419C54.7131 44.6174 51.5003 42.4104 47.8033 39.2958Z" fill="url(#paint17_radial_102_11111)"/>
<mask id="mask2_102_11111" style="mask-type:luminance" maskUnits="userSpaceOnUse" x="30" y="29" width="83" height="78">
<path d="M31.9354 71.2165C31.5484 69.6386 31.245 68.0414 31.0263 66.4316C30.8578 65.1987 30.7526 63.9734 30.663 62.7244C30.1073 53.3241 32.3946 43.9755 37.2275 35.8938C37.8914 34.7908 38.6074 33.7018 39.3678 32.6386C40.0097 31.7393 40.6921 30.8571 41.415 29.9919C41.4383 29.9582 41.4641 29.9261 41.492 29.8961C41.5882 29.7508 41.698 29.6149 41.8198 29.4902C41.0134 30.4991 44.0646 34.6144 48.6725 38.7136C53.2805 42.8129 57.7823 45.4118 58.6537 44.4389C58.6803 44.4115 58.7016 44.3793 58.7164 44.344C58.6341 44.4966 58.5335 44.6385 58.4167 44.7667C55.1784 48.8267 53.3154 53.8105 53.0966 58.9986C52.8778 64.1868 54.3146 69.311 57.1995 73.6316C60.0844 77.9522 64.2682 81.2457 69.147 83.0368C74.0259 84.8278 79.3474 85.0238 84.3435 83.5964C88.4558 82.4541 92.2028 80.2702 95.2219 77.2562C95.2932 77.1703 95.3818 77.1004 95.482 77.0511C95.4471 77.0748 95.4149 77.102 95.3857 77.1324C94.5186 78.1064 97.5727 82.2458 102.231 86.3819C106.89 90.518 111.307 93.0522 112.194 92.1069C112.173 92.1347 112.15 92.1613 112.126 92.1865C111.483 92.8478 110.845 93.4875 110.178 94.1146C109.41 94.8404 108.627 95.5201 107.827 96.1722C106.884 96.9441 105.92 97.6688 104.932 98.3635C97.6877 103.415 89.1831 106.361 80.3622 106.876C79.0262 106.956 77.692 106.982 76.3599 106.954C74.1436 106.887 71.9344 106.667 69.7484 106.296C66.0998 105.697 62.5353 104.667 59.13 103.227C54.4632 101.254 50.1538 98.5257 46.3753 95.1515C39.2337 88.824 34.1982 80.4666 31.9444 71.2003L31.9354 71.2165Z" fill="white"/>
</mask>
<g mask="url(#mask2_102_11111)">
<g style="mix-blend-mode:color-dodge" opacity="0.31">
<mask id="mask3_102_11111" style="mask-type:luminance" maskUnits="userSpaceOnUse" x="28" y="54" width="89" height="53">
<path d="M61.6854 104.461C46.7545 100.349 37.1746 87.3669 32.6029 76.0857C27.8507 64.6956 28.111 55.0073 28.661 54.9031C29.7084 54.3174 31.0999 62.8694 36.4161 72.4683C41.5912 82.0713 50.6855 92.7245 64.0249 96.4431C77.2249 100.595 90.7212 96.5072 100.326 91.0228C110.043 85.6429 115.859 78.8825 116.422 79.965C116.82 80.3603 111.765 89.0294 101.562 96.2215C91.5551 103.452 76.4354 109.196 61.6854 104.461Z" fill="white"/>
</mask>
<g mask="url(#mask3_102_11111)">
<path d="M61.6913 104.439C46.8486 100.346 37.2973 87.4836 32.7218 76.3039C27.9656 65.0152 28.1797 55.4123 28.7266 55.3026C29.7708 54.7114 31.1899 63.1776 36.5009 72.6913C41.6808 82.2071 50.7494 92.7649 64.0105 96.4626C77.1421 100.591 90.5565 96.5655 100.121 91.1634C109.789 85.8591 115.594 79.1749 116.135 80.2886C116.531 80.6883 111.485 89.2572 101.336 96.3519C91.3974 103.484 76.3567 109.142 61.6913 104.439Z" fill="black"/>
<path d="M61.7421 104.267C47.6009 100.357 38.3083 88.4252 33.6847 78.0338C28.9043 67.5491 28.7874 58.6074 29.3265 58.4397C30.2999 57.8342 31.9442 65.6341 37.2429 74.4458C42.4176 83.2849 51.2592 93.1064 63.9595 96.6352C76.5381 100.583 89.3609 97.0603 98.5401 92.277C107.817 87.5805 113.446 81.6224 113.929 82.7111C114.279 83.1449 109.316 90.9304 99.5814 97.3163C90.0323 103.724 75.72 108.734 61.7421 104.267Z" fill="black"/>
<path d="M61.7933 104.094C48.3417 100.359 39.3345 89.3289 34.6928 79.7011C29.9093 69.9934 29.4988 61.695 30.0222 61.4813C30.9293 60.8627 32.7633 68.024 38.024 76.1595C43.1864 84.2966 51.7743 93.4121 63.912 96.8134C75.9562 100.581 88.1552 97.5243 96.9446 93.3259C105.826 89.1847 111.268 83.9263 111.688 84.9845C112.027 85.4574 107.136 92.4889 97.826 98.1966C88.6804 103.916 75.0924 108.328 61.7933 104.094Z" fill="black"/>
<path d="M61.844 103.921C49.0852 100.368 40.3695 90.1979 35.7352 81.308C30.984 72.3496 30.3087 64.6742 30.8142 64.4231C31.658 63.7968 33.6487 70.3387 38.8503 77.8249C43.9634 85.3107 52.3017 93.7398 63.8608 96.9861C75.3303 100.567 86.9474 97.96 95.3475 94.3094C103.82 90.7386 109.057 86.0867 109.42 87.1156C109.702 87.6104 104.951 93.9437 96.069 99.0115C87.3359 104.096 74.4687 107.924 61.844 103.921Z" fill="black"/>
<path d="M61.895 103.749C49.8203 100.374 41.4142 91.032 36.8171 82.8554C32.1175 74.6095 31.2223 67.5459 31.7043 67.2606C32.4869 66.6365 34.5989 72.5868 39.7138 79.4396C44.8287 86.2923 52.8021 94.0648 63.81 97.1587C74.7288 100.55 85.7401 98.3771 93.7311 95.227C101.784 92.1402 106.828 88.1071 107.125 89.0857C107.375 89.5953 102.766 95.263 94.3225 99.7358C86.0001 104.227 73.8484 107.525 61.895 103.749Z" fill="black"/>
<path d="M61.9463 103.576C50.5501 100.383 42.4715 91.8369 37.9397 84.3393C33.3081 76.7962 32.2264 70.3069 32.687 69.9971C33.4084 69.3753 35.6073 74.7574 40.6207 81.0147C45.6341 87.272 53.3169 94.389 63.755 97.3302C74.1084 100.57 84.5273 98.7461 92.1094 96.078C99.6915 93.4099 104.541 89.9771 104.806 90.9191C105.021 91.4423 100.57 96.4818 92.5664 100.392C84.6782 104.325 73.2371 107.128 61.9463 103.576Z" fill="black"/>
<path d="M61.997 103.403C51.2718 100.385 43.54 92.5984 39.0911 85.7657C34.5621 78.8836 33.3191 72.9612 33.754 72.6259C34.7657 71.4251 43.648 91.9519 63.7039 97.5029C83.5624 103.825 102.259 91.0656 102.469 92.6124C102.657 93.1286 98.3803 97.572 90.8241 100.978C83.3782 104.391 72.6241 106.735 61.997 103.403Z" fill="black"/>
<path d="M62.0479 103.231C51.9883 100.391 44.6125 93.3283 40.2511 87.1432C35.8622 80.9042 34.4792 75.5218 34.8859 75.1696C35.8393 73.9952 44.7648 92.4468 63.6341 97.6938C82.3139 103.631 99.9438 92.6764 100.093 94.1741C100.25 94.6821 96.16 98.6026 89.0589 101.511C82.0616 104.415 72.02 106.345 62.0479 103.231Z" fill="#010101"/>
<path d="M62.0958 103.053C52.7004 100.395 45.6988 94.0245 41.497 88.4271C37.2951 82.8298 35.7762 77.9373 36.1579 77.5738C37.051 76.4158 45.9314 92.9131 63.6109 97.8505C81.1288 103.374 97.6348 94.1257 97.7573 95.5652C97.8844 96.065 94.0016 99.4728 87.3513 101.934C80.7011 104.395 71.4203 105.956 62.0958 103.053Z" fill="#020202"/>
<path d="M62.1508 102.863C44.3773 97.7368 36.4584 80.4352 37.4814 79.8709C38.3068 78.7739 47.0732 93.3822 63.5629 98.0102C79.9068 103.13 95.2946 95.4457 95.3843 96.8159C95.4854 97.3087 91.8202 100.235 85.629 102.288C79.4377 104.341 70.8233 105.573 62.1508 102.863Z" fill="#030303"/>
<path d="M62.1973 102.707C45.7794 97.9681 37.9838 82.7116 38.881 82.095C39.6292 81.0425 48.1978 93.8837 63.5075 98.2002C78.7043 102.938 92.936 96.6628 92.9986 97.9605C93.4228 98.9871 78.5419 107.72 62.1973 102.707Z" fill="#050505"/>
<path d="M62.2485 102.535C47.1732 98.1784 39.5701 84.8134 40.3559 84.1949C41.0388 83.1948 49.3259 94.3723 63.4612 98.3741C77.4923 102.73 90.5823 97.7229 90.6133 98.9469C90.9378 99.9281 77.2586 107.134 62.2485 102.535Z" fill="#070708"/>
<path d="M62.2992 102.362C48.5491 98.3841 41.2178 86.806 41.9239 86.1894C42.5379 85.2547 50.4687 94.8741 63.4307 98.5569C76.3048 102.533 88.2407 98.6838 88.2689 99.8139C88.469 100.72 75.9877 106.57 62.2992 102.362Z" fill="#0B0B0B"/>
<path d="M62.3499 102.189C49.9076 98.5852 42.9277 88.6709 43.5211 88.0567C44.0621 87.1863 51.5748 95.3383 63.3589 98.7194C75.0737 102.324 85.858 99.4847 85.843 100.515C86.009 101.374 74.7413 105.966 62.3499 102.189Z" fill="#101010"/>
<path d="M62.4056 101.999C51.258 98.7654 44.7024 90.3994 45.2071 89.8033C45.6836 88.9994 52.7004 95.8355 63.2909 98.8689C73.8509 102.104 83.465 100.134 83.4516 101.071C83.5822 101.888 73.5057 105.393 62.4056 101.999Z" fill="#171717"/>
<path d="M62.4517 101.844C52.5902 98.9779 46.5254 92.0337 46.9521 91.4679C47.3551 90.7468 53.8156 96.3532 63.257 99.0647C72.6564 101.933 81.1462 100.714 81.1007 101.545C81.1522 102.257 72.2786 104.822 62.4517 101.844Z" fill="#1F2020"/>
<path d="M62.5041 101.667C53.91 99.1685 48.4102 93.5261 48.7597 93.0049C49.0991 92.3646 54.9359 96.8536 63.2052 99.2417C71.4442 101.743 78.8064 101.13 78.7463 101.86C78.7575 102.496 71.0681 104.26 62.5041 101.667Z" fill="#2A2B2B"/>
<path d="M62.5506 101.493C55.1992 99.3509 50.3328 94.8937 50.6213 94.426C50.9015 93.8676 56.0603 97.3552 63.1586 99.4156C70.2316 101.553 76.4718 101.422 76.4059 102.034C76.3987 102.6 69.8661 103.7 62.5506 101.493Z" fill="#38393A"/>
<path d="M62.6017 101.32C56.5146 99.5403 52.3352 96.1381 52.543 95.728C52.7508 95.3179 57.1825 97.8655 63.1078 99.5882C69.0332 101.311 74.1493 101.583 74.0905 102.098C74.0317 102.613 68.6761 103.148 62.6017 101.32Z" fill="#4A4A4B"/>
<path d="M62.656 101.135C57.8059 99.714 54.3734 97.2479 54.5179 96.9C54.6624 96.5521 58.3221 98.3618 63.0777 99.7525C67.8333 101.143 71.8681 101.605 71.797 102.01C71.7258 102.414 67.4945 102.599 62.656 101.135Z" fill="#5F6061"/>
<path d="M62.7033 100.975C59.0771 99.9103 56.4407 98.249 56.514 97.9752C56.5874 97.7014 59.4219 98.8848 62.9839 99.9277C66.546 100.971 69.5528 101.511 69.4724 101.811C69.3921 102.111 66.3248 102.057 62.7033 100.975Z" fill="#787A7B"/>
<path d="M62.7543 100.802C60.3478 100.092 58.5455 99.111 58.5955 98.9242C58.6456 98.7373 60.5689 99.4064 62.9453 100.09C65.3216 100.773 67.295 101.255 67.238 101.468C67.1809 101.681 65.1596 101.517 62.7543 100.802Z" fill="#97999A"/>
<path d="M62.8054 100.63C61.6044 100.275 60.6841 99.8471 60.7098 99.7515C60.7354 99.6559 61.7117 99.9268 62.8998 100.278C64.0878 100.629 65.0548 100.934 65.0292 101.03C65.0036 101.126 64.0065 100.984 62.8054 100.63Z" fill="#BCBEC0"/>
</g>
</g>
</g>
<defs>
<filter id="filter0_f_102_11111" x="0.555176" y="0.401489" width="141.752" height="137.708" filterUnits="userSpaceOnUse" color-interpolation-filters="sRGB">
<feFlood flood-opacity="0" result="BackgroundImageFix"/>
<feBlend mode="normal" in="SourceGraphic" in2="BackgroundImageFix" result="shape"/>
<feGaussianBlur stdDeviation="15" result="effect1_foregroundBlur_102_11111"/>
</filter>
<linearGradient id="paint0_linear_102_11111" x1="109.609" y1="86.6568" x2="85.7734" y2="80.624" gradientUnits="userSpaceOnUse">
<stop stop-color="#F1F2F2"/>
<stop offset="0.18" stop-color="#EDEEEE"/>
<stop offset="0.38" stop-color="#E0E0E0"/>
<stop offset="0.59" stop-color="#CBCACA"/>
<stop offset="0.8" stop-color="#AEACAC"/>
<stop offset="1" stop-color="#8A8787"/>
</linearGradient>
<linearGradient id="paint1_linear_102_11111" x1="61.0387" y1="38.0428" x2="34.3403" y2="38.1499" gradientUnits="userSpaceOnUse">
<stop offset="0.01" stop-color="#F1F2F2"/>
<stop offset="0.22" stop-color="#EEEFEF"/>
<stop offset="0.41" stop-color="#E4E4E4"/>
<stop offset="0.59" stop-color="#D2D2D2"/>
<stop offset="0.76" stop-color="#BAB9B9"/>
<stop offset="0.92" stop-color="#9C9999"/>
<stop offset="1" stop-color="#8A8787"/>
</linearGradient>
<linearGradient id="paint2_linear_102_11111" x1="98.6208" y1="54.2472" x2="27.873" y2="83.5539" gradientUnits="userSpaceOnUse">
<stop stop-color="#3AEDB1"/>
<stop offset="1" stop-color="#245CEC"/>
</linearGradient>
<linearGradient id="paint3_linear_102_11111" x1="108.773" y1="83.7235" x2="98.7517" y2="87.7855" gradientUnits="userSpaceOnUse">
<stop stop-color="#5F1BBA"/>
<stop offset="1" stop-color="#EC24A1"/>
</linearGradient>
<linearGradient id="paint4_linear_102_11111" x1="108.648" y1="83.2834" x2="100.746" y2="89.3156" gradientUnits="userSpaceOnUse">
<stop stop-color="#3AEDB1"/>
<stop offset="1" stop-color="#1DBFBF"/>
</linearGradient>
<linearGradient id="paint5_linear_102_11111" x1="113.016" y1="89.5753" x2="97.7188" y2="87.5726" gradientUnits="userSpaceOnUse">
<stop stop-color="#0F8ABF"/>
<stop offset="1" stop-color="#1986EC"/>
</linearGradient>
<linearGradient id="paint6_linear_102_11111" x1="59.5039" y1="41.9028" x2="44.1903" y2="39.8993" gradientUnits="userSpaceOnUse">
<stop stop-color="#0F8ABF"/>
<stop offset="1" stop-color="#1986EC"/>
</linearGradient>
<radialGradient id="paint7_radial_102_11111" cx="0" cy="0" r="1" gradientUnits="userSpaceOnUse" gradientTransform="translate(100.447 87.8118) rotate(130.32) scale(1.54489 11.3357)">
<stop stop-color="#BCBEC0"/>
<stop offset="0.08" stop-color="#959799"/>
<stop offset="0.18" stop-color="#6E6F70"/>
<stop offset="0.28" stop-color="#4C4D4E"/>
<stop offset="0.39" stop-color="#303131"/>
<stop offset="0.51" stop-color="#1B1B1B"/>
<stop offset="0.64" stop-color="#0C0C0C"/>
<stop offset="0.78" stop-color="#030303"/>
<stop offset="0.99"/>
</radialGradient>
<radialGradient id="paint8_radial_102_11111" cx="0" cy="0" r="1" gradientUnits="userSpaceOnUse" gradientTransform="translate(48.2048 41.07) rotate(131.586) scale(1.1511 8.52282)">
<stop stop-color="#BCBEC0"/>
<stop offset="0.08" stop-color="#959799"/>
<stop offset="0.18" stop-color="#6E6F70"/>
<stop offset="0.28" stop-color="#4C4D4E"/>
<stop offset="0.39" stop-color="#303131"/>
<stop offset="0.51" stop-color="#1B1B1B"/>
<stop offset="0.64" stop-color="#0C0C0C"/>
<stop offset="0.78" stop-color="#030303"/>
<stop offset="0.99"/>
</radialGradient>
<linearGradient id="paint9_linear_102_11111" x1="109.609" y1="85.4988" x2="85.7734" y2="79.466" gradientUnits="userSpaceOnUse">
<stop stop-color="#F1F2F2"/>
<stop offset="0.18" stop-color="#EDEEEE"/>
<stop offset="0.38" stop-color="#E0E0E0"/>
<stop offset="0.59" stop-color="#CBCACA"/>
<stop offset="0.8" stop-color="#AEACAC"/>
<stop offset="1" stop-color="#8A8787"/>
</linearGradient>
<linearGradient id="paint10_linear_102_11111" x1="61.0387" y1="36.8848" x2="34.3403" y2="36.992" gradientUnits="userSpaceOnUse">
<stop offset="0.01" stop-color="#F1F2F2"/>
<stop offset="0.22" stop-color="#EEEFEF"/>
<stop offset="0.41" stop-color="#E4E4E4"/>
<stop offset="0.59" stop-color="#D2D2D2"/>
<stop offset="0.76" stop-color="#BAB9B9"/>
<stop offset="0.92" stop-color="#9C9999"/>
<stop offset="1" stop-color="#8A8787"/>
</linearGradient>
<linearGradient id="paint11_linear_102_11111" x1="98.6208" y1="53.0893" x2="27.873" y2="82.3959" gradientUnits="userSpaceOnUse">
<stop stop-color="#3AEDB1"/>
<stop offset="1" stop-color="#245CEC"/>
</linearGradient>
<linearGradient id="paint12_linear_102_11111" x1="108.773" y1="82.5655" x2="98.7517" y2="86.6276" gradientUnits="userSpaceOnUse">
<stop stop-color="#5F1BBA"/>
<stop offset="1" stop-color="#EC24A1"/>
</linearGradient>
<linearGradient id="paint13_linear_102_11111" x1="108.648" y1="82.1255" x2="100.746" y2="88.1576" gradientUnits="userSpaceOnUse">
<stop stop-color="#3AEDB1"/>
<stop offset="1" stop-color="#1DBFBF"/>
</linearGradient>
<linearGradient id="paint14_linear_102_11111" x1="113.016" y1="88.4174" x2="97.7188" y2="86.4147" gradientUnits="userSpaceOnUse">
<stop stop-color="#0F8ABF"/>
<stop offset="1" stop-color="#1986EC"/>
</linearGradient>
<linearGradient id="paint15_linear_102_11111" x1="59.5039" y1="40.7448" x2="44.1903" y2="38.7413" gradientUnits="userSpaceOnUse">
<stop stop-color="#0F8ABF"/>
<stop offset="1" stop-color="#1986EC"/>
</linearGradient>
<radialGradient id="paint16_radial_102_11111" cx="0" cy="0" r="1" gradientUnits="userSpaceOnUse" gradientTransform="translate(100.447 86.6538) rotate(130.32) scale(1.54489 11.3357)">
<stop stop-color="#BCBEC0"/>
<stop offset="0.08" stop-color="#959799"/>
<stop offset="0.18" stop-color="#6E6F70"/>
<stop offset="0.28" stop-color="#4C4D4E"/>
<stop offset="0.39" stop-color="#303131"/>
<stop offset="0.51" stop-color="#1B1B1B"/>
<stop offset="0.64" stop-color="#0C0C0C"/>
<stop offset="0.78" stop-color="#030303"/>
<stop offset="0.99"/>
</radialGradient>
<radialGradient id="paint17_radial_102_11111" cx="0" cy="0" r="1" gradientUnits="userSpaceOnUse" gradientTransform="translate(48.2048 39.912) rotate(131.586) scale(1.1511 8.52282)">
<stop stop-color="#BCBEC0"/>
<stop offset="0.08" stop-color="#959799"/>
<stop offset="0.18" stop-color="#6E6F70"/>
<stop offset="0.28" stop-color="#4C4D4E"/>
<stop offset="0.39" stop-color="#303131"/>
<stop offset="0.51" stop-color="#1B1B1B"/>
<stop offset="0.64" stop-color="#0C0C0C"/>
<stop offset="0.78" stop-color="#030303"/>
<stop offset="0.99"/>
</radialGradient>
</defs>
</svg>
