<svg version="1.2" xmlns="http://www.w3.org/2000/svg" viewBox="0 0 47 39" width="47" height="39">
	<title>bootstrap-svg</title>
	<defs>
		<clipPath clipPathUnits="userSpaceOnUse" id="cp1">
			<path d="m0 0h47v39h-47z"/>
		</clipPath>
		<clipPath clipPathUnits="userSpaceOnUse" id="cp2">
			<path d="m47 0h-47v39h47z"/>
		</clipPath>
	</defs>
	<style>
		.s0 { fill: #ffffff } 
		.s1 { fill: #000000 } 
	</style>
	<g id="Clip-Path" clip-path="url(#cp1)">
		<g id="Layer">
			<g id="Clip-Path" clip-path="url(#cp2)">
				<g id="Layer">
					<path id="Layer" class="s0" d="m5.2 5.1c-0.1-2.7 1.9-5.1 4.6-5.1h27.4c2.7 0 4.7 2.4 4.6 5.1-0.1 2.5 0 5.8 0.8 8.5 0.8 2.7 2.2 4.4 4.4 4.7v2.4c-2.2 0.3-3.6 2-4.4 4.7-0.8 2.7-0.9 6-0.8 8.5 0.1 2.7-1.9 5.1-4.6 5.1h-27.4c-2.7 0-4.7-2.4-4.6-5.1 0.1-2.5 0-5.8-0.8-8.5-0.8-2.7-2.2-4.4-4.4-4.7v-2.4c2.2-0.3 3.6-2 4.4-4.7 0.8-2.7 0.9-6 0.8-8.5z"/>
					<g id="Layer">
						<path id="Layer" fill-rule="evenodd" class="s1" d="m16.3 29.9v-20.8h8.2c3.6 0 6 2.1 6 5.2 0 2.2-1.6 4.2-3.7 4.5v0.1c2.8 0.3 4.7 2.3 4.7 5.1 0 3.7-2.6 5.9-7 5.9zm3.2-11.9h3.5c2.8 0 4.3-1.2 4.3-3.3 0-1.9-1.3-2.9-3.6-2.9h-4.2zm4.4 9.2c2.8 0 4.3-1.2 4.3-3.4 0-2.2-1.5-3.4-4.5-3.4h-4.2v6.8z"/>
						<path id="Layer" fill-rule="evenodd" class="s1" d="m16.3 29.9v-20.8h8.2c3.6 0 6 2.1 6 5.2 0 2.2-1.6 4.2-3.7 4.5v0.1c2.8 0.3 4.7 2.3 4.7 5.1 0 3.7-2.6 5.9-7 5.9zm3.2-11.9h3.5c2.8 0 4.3-1.2 4.3-3.3 0-1.9-1.3-2.9-3.6-2.9h-4.2zm4.4 9.2c2.8 0 4.3-1.2 4.3-3.4 0-2.2-1.5-3.4-4.5-3.4h-4.2v6.8z"/>
					</g>
				</g>
			</g>
		</g>
	</g>
</svg>