<svg version="1.2" xmlns="http://www.w3.org/2000/svg" viewBox="0 0 36 36" width="36" height="36">
	<title>gulp-svg</title>
	<style>
		.s0 { fill: #ffffff } 
		.s1 { fill: #a4afc1 } 
		.s2 { fill: #000000 } 
	</style>
	<path id="Layer" class="s0" d="m8.1 5.6c-1.8 6.6-6.5 10.3-7.4 13.5-0.8 3.2-0.8 10.5 14 14.5 14.8 4 19.4-4.5 20.4-8.1 4.5-16.5-23.8-31.8-27-19.9z"/>
	<path id="Layer" fill-rule="evenodd" class="s1" d="m7.7 10l1.4-1.4 0.7 0.7-1.4 1.4zm-4.1 4l1.4-1.4 0.7 0.7-1.4 1.4zm0-4.9l0.7-0.7 1.4 1.4-0.7 0.7zm26.4 6.1c-0.8 0-1.5-0.7-1.5-1.5 0-0.8 0.7-1.5 1.5-1.5 0.9 0 1.5 0.7 1.5 1.5 0 0.8-0.6 1.5-1.5 1.5zm0-2q-0.2 0-0.3 0.2-0.2 0.1-0.2 0.3 0 0.2 0.2 0.4 0.1 0.1 0.3 0.1 0.2 0 0.4-0.1 0.1-0.2 0.1-0.4 0-0.2-0.1-0.3-0.2-0.2-0.4-0.2z"/>
	<path id="Layer" fill-rule="evenodd" class="s2" d="m10.9 23.9l-1.4-0.5 0.8-2.3c-0.9 0.7-2 1.1-2.8 1-0.4 0-1.5-0.3-1.5-1.9 0-4.2 3.5-9.7 6.1-9.7 2 0 2.7 1.5 2.7 2.5v0.8h-1.5v-0.8c0-0.3-0.2-1-1.2-1-1.4 0-4.6 4.4-4.6 8.2 0 0.4 0.1 0.4 0.2 0.4 0.9 0.1 3.1-1.6 3.2-2.3 0.3-1.1 1.2-2.8 1.3-3q0.2-0.2 0.5-0.3 0.2-0.1 0.5 0 0.3 0.1 0.4 0.4 0.1 0.2 0 0.5zm6.6-2q-0.1 0-0.2 0-0.1-0.1-0.3-0.1-0.1-0.1-0.1-0.1-0.1-0.1-0.2-0.2-0.2-0.3-0.2-0.8c-0.7 0.8-1.4 1.3-2.2 1.2-0.4-0.1-0.8-0.3-1-0.7-0.6-1.2 0.8-3.9 1.4-5l0.4-0.7 1.3 0.8-0.4 0.6c-0.7 1.4-1.3 2.9-1.4 3.5 0.6-0.3 1.9-2 3-4.2q0.1-0.2 0.4-0.3 0.3-0.1 0.5 0 0.3 0.1 0.4 0.4 0.2 0.2 0 0.5c-0.4 1.3-0.8 2.7-0.9 3.5 0.4-0.2 0.8-0.6 1.1-0.9l0.5-0.5 1.1 1-0.5 0.6c-0.2 0.2-1.4 1.4-2.7 1.4zm-2.8-1.3z"/>
	<path id="Layer" fill-rule="evenodd" class="s2" d="m20.4 22.1q-0.1 0-0.2 0-0.2 0-0.3 0-0.2-0.1-0.3-0.2-0.1-0.1-0.3-0.2-0.1-0.1-0.1-0.2c-1-1.7 1.6-7.3 2.8-9.6l0.3-0.7 1.4 0.7-0.4 0.7c-1.7 3.5-3 7.1-2.9 8 1.2-0.1 2.3-2 2.8-2.9l0.3-0.7 1.3 0.6-0.3 0.7c-0.1 0.4-1.7 3.8-4.1 3.8zm0.1-1.4z"/>
	<path id="Layer" class="s2" d="m20.9 25.5q-0.2 0-0.3-0.1-0.2-0.1-0.3-0.2-0.1-0.2-0.1-0.4-0.1-0.1 0-0.3c0.1-0.4 0.4-1.1 0.8-2.1l2.8-6.5 1.4 0.5-0.1 0.3c0.5-0.4 1.1-0.6 1.7-0.6q1.2 0 1.5 0.7c0.4 0.9-0.6 2-1.7 3.3 0.9-0.6 1.7-1.5 2.1-1.9l0.4-0.6 1.2 1-0.5 0.6c-0.2 0.3-2.7 3.3-5.1 2.9q-0.1-0.1-0.2-0.1-0.1-0.1-0.2-0.1-0.1-0.1-0.2-0.2 0-0.1-0.1-0.2c-0.2-0.6 0.3-1.2 1.3-2.2 0.4-0.5 1.1-1.3 1.4-1.7-1.3 0-3.1 2.9-4.3 5.6l-0.8 1.8q0 0.1-0.1 0.2-0.1 0.1-0.2 0.2-0.1 0-0.2 0.1-0.1 0-0.2 0z"/>
</svg>