<svg version="1.2" xmlns="http://www.w3.org/2000/svg" viewBox="0 0 128 128" width="128" height="128">
	<title>jquery-svg</title>
	<style>
		.s0 { fill: #ffffff } 
		.s1 { fill: none;stroke: #ffffff;stroke-width: 4.4 } 
	</style>
	<path id="Layer" class="s0" d="m27.8 20.4c-7.4 10.6-6.5 24.3-0.9 35.6l0.4 0.8 0.3 0.5 0.2 0.3 0.3 0.5q0.2 0.4 0.5 0.9l0.3 0.5q0.3 0.5 0.6 1l0.3 0.4q0.4 0.6 0.9 1.3l0.2 0.2q0.4 0.6 0.8 1.1l0.3 0.4q0.4 0.5 0.8 0.9l0.3 0.4q0.5 0.6 1 1.2l0.1 0.1q0.5 0.5 1.1 1.1l0.3 0.3q0.4 0.5 0.9 0.9l0.3 0.3q0.6 0.6 1.2 1.1l0.2 0.2q0.5 0.4 1.1 0.9l0.4 0.3q0.5 0.4 0.9 0.7l0.5 0.4q0.5 0.4 1 0.7l0.3 0.3h0.1q0.5 0.4 1 0.7l0.4 0.3q0.8 0.4 1.6 0.9l0.4 0.2q0.5 0.4 1.1 0.7l0.6 0.3 0.9 0.4 0.1 0.1 0.4 0.2q0.6 0.3 1.3 0.6l0.2 0.1q0.8 0.3 1.6 0.6l0.3 0.2q0.7 0.2 1.4 0.5l0.2 0.1q0.8 0.2 1.6 0.5l0.4 0.1c0.5 0.1 1.1 0.3 1.6 0.4 35.6 6.5 45.9-21.3 45.9-21.3-8.7 11.3-24.1 14.3-38.6 10.9-0.6-0.1-1.1-0.3-1.7-0.4l-0.4-0.1q-0.8-0.3-1.5-0.5l-0.3-0.1q-0.7-0.3-1.3-0.5l-0.4-0.2q-0.8-0.3-1.5-0.6l-0.3-0.1q-0.7-0.3-1.3-0.6l-0.3-0.2q-0.5-0.2-1-0.5l-0.7-0.3q-0.6-0.4-1.1-0.7l-0.4-0.2q-0.8-0.5-1.5-0.9l-0.5-0.3q-0.5-0.4-1-0.7l-0.4-0.3q-0.5-0.3-1-0.7l-0.5-0.4q-0.4-0.3-0.9-0.7l-0.4-0.3q-0.6-0.5-1.1-1l-0.2-0.1q-0.6-0.5-1.2-1.1l-0.3-0.3q-0.5-0.4-0.9-0.9l-0.3-0.3q-0.6-0.6-1.1-1.1v-0.1q-0.6-0.6-1.1-1.2l-0.3-0.3q-0.4-0.5-0.8-1l-0.3-0.4q-0.4-0.6-0.9-1.2c-8.1-11-11-26.2-4.5-38.8m17.1-1.6c-5.3 7.7-5 17.9-0.9 26q1 2 2.3 3.9c0.8 1.2 1.7 2.5 2.8 3.4q0.6 0.7 1.2 1.3l0.3 0.3q0.6 0.6 1.2 1.1l0.1 0.1q0.7 0.6 1.4 1.2l0.3 0.2q0.7 0.6 1.5 1.1h0.1l0.6 0.5 0.4 0.2q0.5 0.3 1.1 0.7l0.1 0.1q0.5 0.2 1 0.5l0.3 0.2 0.7 0.3 0.1 0.1q0.7 0.3 1.4 0.6l0.4 0.2q0.5 0.2 1.1 0.5l0.5 0.1q0.6 0.2 1.1 0.4l0.5 0.2c0.5 0.1 1 0.3 1.5 0.4 27.5 4.6 33.8-16.6 33.8-16.6-5.7 8.3-16.8 12.2-28.6 9.1q-0.7-0.2-1.5-0.4l-0.5-0.2q-0.5-0.2-1.1-0.4l-0.5-0.1q-0.6-0.3-1.1-0.5l-0.3-0.2q-0.8-0.3-1.5-0.6l-0.7-0.4-0.4-0.2q-0.5-0.2-0.9-0.5l-0.2-0.1q-0.6-0.4-1.1-0.7l-0.4-0.2-0.7-0.5q-0.7-0.5-1.5-1.1l-0.3-0.2c-5.2-4.1-9.3-9.7-11.2-16-2.1-6.6-1.6-13.9 1.9-19.9m14.9-0.5c-3.2 4.6-3.5 10.3-1.3 15.4 2.3 5.4 7 9.7 12.5 11.7l0.7 0.2 0.3 0.1c0.3 0.1 0.6 0.2 0.9 0.3 15.2 2.9 19.3-7.8 20.4-9.4-3.6 5.2-9.7 6.5-17.1 4.6-0.6-0.1-1.2-0.3-1.8-0.5q-1.1-0.4-2.1-0.9-2-0.9-3.7-2.3c-6.7-5-10.8-14.6-6.5-22.5"/>
	<path id="Layer" fill-rule="evenodd" class="s0" d="m66.7 96.7l-2 9.3-2 9.3c0 0.2-0.2 0.4-0.5 0.4h-9.1-0.2c-5.8-0.1-6.1-4.8-5.1-9.7l0.1-0.4 1-4.5 0.9-4.4c0-0.2 0.3-0.4 0.5-0.4h4.4c0.2 0 0.3 0.2 0.3 0.4l-0.7 3.3-0.7 3.4-0.1 0.8-0.2 0.7-0.1 0.8-0.1 0.4v0.1c-0.6 2.8-1 4.8 2 4.8h3c0.2 0 0.5-0.2 0.5-0.4l3-13.9c0.1-0.2 0.3-0.4 0.5-0.4h4.3c0.2 0 0.3 0.2 0.3 0.4zm-45.3 0l-0.8 3.8c-0.1 0.3-0.3 0.5-0.5 0.5h-4.7c-0.2 0-0.4-0.2-0.3-0.5l0.8-3.8c0.1-0.3 0.3-0.5 0.6-0.5h4.6c0.2 0 0.4 0.2 0.3 0.5zm-1.3 6l-1.4 6.3-1.4 6.7c-1.3 5.9-3.2 7.9-6.9 7.9-1.1 0-3 0-3.8 0-0.2 0-0.4-0.2-0.3-0.5l0.5-2 0.5-2c0-0.3 0.2-0.4 0.5-0.4h1.2 0.2c1.5 0 2.4-2.6 2.4-2.6 0.1-0.2 0.2-0.6 0.2-0.8l0.6-3 0.7-2.9 0.1-0.9 0.7-2.9 0.7-2.9c0-0.2 0.2-0.4 0.5-0.4h4.7c0.2 0 0.3 0.2 0.3 0.4zm85.4-1.6h-11c-0.3 0-0.5 0.2-0.6 0.5l-0.6 3.1-0.8 3.6-0.1 0.4-0.6 3.1-0.6 3.1c-0.1 0.2-0.3 0.7-0.4 0.7-0.1 0.1-0.4 0.1-0.7 0.1h-3.5c-0.2 0-0.7-0.1-0.7-0.2 0-0.1 0-0.4 0-0.6l1.7-7.8 1.8-8.3v-0.3l0.2-0.9 0.2-0.8c0.1-0.3 0.3-0.5 0.5-0.5h3.9 3.5l3.8 0.1c2.4 0 3.5 0.8 3.9 2.3l0.1 0.4 0.2 0.8 0.2 0.8c0 0.2-0.1 0.4-0.4 0.4zm16-7.6c0.2 0 0.3 0.1 0.2 0.3l-12.8 16.9c-0.1 0.2-0.3 0.5-0.3 0.8l-1 3.8c-0.1 0.2-0.3 0.4-0.6 0.4h-5c-0.2 0-0.3-0.2-0.3-0.4l1-3.8c0.1-0.3 0.1-0.6 0-0.9l-2.3-7.9c0-0.2 0.1-0.4 0.3-0.4h5.1c0.2 0 0.5 0.2 0.5 0.4l0.6 2.6c0 0.2 0.2 0.2 0.3 0l7.9-11.5c0.1-0.2 0.4-0.3 0.6-0.3h3.6 0.8zm-36.8 14v0.1c-0.1 0.1-0.3 0.3-0.5 0.3h-12.2c-0.3 2.4 0.6 3.2 3.6 3.2h7.7c0.2 0 0.4 0.2 0.3 0.4l-0.4 2-0.1 0.3-0.3 1.7c-0.1 0.2-0.3 0.4-0.5 0.4-0.9 0-3.2 0-5.4 0.1h-1.1-0.3-1c-8.5 0-8.6-4.8-7.5-10 1.1-5 3-10 11.2-10 7.8 0 8.3 4.6 6.5 11.5zm-7.5-6.8c-2.4 0-3.6 1-4.2 2.7l-0.1 0.1c0 0.2 0.1 0.3 0.3 0.3h6.4c0.3 0 0.5-0.1 0.5-0.4 0.2-1.4-0.3-2.7-2.9-2.7zm-34.4 9.9c-0.1 0.1 0 0.3 0.2 0.3h2.1c0.2 0 0.4 0.2 0.3 0.4l-1.1 4.1c0 0.2-0.3 0.4-0.5 0.4h-6.1-6.5c-8.3 0.1-10.1-5.7-8.7-12.2 1.4-6.5 5-12.5 13.3-12.5 8.4 0 10.5 6.2 9.8 10.6-0.5 3.2-2.8 8.8-2.8 8.8zm-8.1-14.4c-3.7 0.3-5.4 3-6.3 7.4-0.9 4.2 0 7.1 3.7 7.1h4.9c0.2 0 0.4-0.1 0.5-0.4l0.9-3.2 0.9-3.3 0.2-0.4c1.2-4.1 0.2-7.6-4.8-7.2zm49 10.3c-0.2 0-0.3 0.1-0.3 0.2 0 0.2 0.1 0.3 0.3 0.3 0.1 0 0.2-0.1 0.2-0.3 0-0.1-0.1-0.2-0.2-0.2z"/>
	<path id="Shape 1" class="s1" d="m7 7l115 116"/>
	<path id="Shape 1 copy" class="s1" d="m123 6l-115 116"/>
</svg>