<svg version="1.2" xmlns="http://www.w3.org/2000/svg" viewBox="0 0 52 52" width="52" height="52">
	<title>scss-svg</title>
	<defs>
		<clipPath clipPathUnits="userSpaceOnUse" id="cp1">
			<path d="m0 0h52v52h-52z"/>
		</clipPath>
	</defs>
	<style>
		.s0 { fill: #ffffff } 
		.s1 { fill: #000000 } 
	</style>
	<g id="Clip-Path" clip-path="url(#cp1)">
		<g id="Layer">
			<path id="Layer" fill-rule="evenodd" class="s0" d="m26 52c-14.4 0-26-11.6-26-26 0-14.4 11.6-26 26-26q0.5 0 1 0v26h25c0 14.4-11.6 26-26 26zm2.5-27.5v-24.4c12.7 1.2 22.7 11.6 23.5 24.4z"/>
			<path id="Layer" class="s1" d="m13.5 41c1.9 0 3.1-1.1 3.1-2.7 0-1.8-1.4-2.3-2.8-2.7-1.2-0.4-1.6-0.6-1.6-1.1 0-0.5 0.5-0.8 1.2-0.8 0.7 0 1.5 0.3 2.2 0.8l0.8-1.5c-0.8-0.6-1.9-1-3-1-1.8 0-3 1.1-3 2.7 0 1.5 1.1 2.1 2.8 2.6 0.9 0.2 1.6 0.4 1.6 1.1 0 0.5-0.5 0.9-1.3 0.9-1 0-1.9-0.4-2.6-1l-0.9 1.4c1 0.8 2.3 1.3 3.5 1.3z"/>
			<path id="Layer" class="s1" d="m22.3 41c1.2 0 2.3-0.6 3.1-1.4l-1.3-1.2c-0.4 0.5-1.1 0.9-1.8 0.9-1.3 0-2.4-1.3-2.4-2.8 0-1.5 1.1-2.8 2.4-2.8 0.7 0 1.3 0.4 1.8 0.9l1.2-1.2c-0.7-0.9-1.8-1.4-3-1.4-2.3 0-4.3 2-4.3 4.5 0 2.4 2 4.5 4.3 4.5z"/>
			<path id="Layer" class="s1" d="m30 41c1.8 0 3.1-1.1 3.1-2.7 0-1.8-1.4-2.3-2.8-2.7-1.2-0.4-1.6-0.6-1.6-1.1 0-0.5 0.5-0.8 1.2-0.8 0.6 0 1.5 0.3 2.2 0.8l0.8-1.5c-0.9-0.6-2-1-3-1-1.8 0-3.1 1.1-3.1 2.7 0.1 1.5 1.2 2.1 2.9 2.6 0.9 0.2 1.6 0.4 1.6 1.1 0 0.5-0.5 0.9-1.3 0.9-1 0-1.9-0.4-2.7-1l-0.8 1.4c0.9 0.8 2.3 1.3 3.5 1.3z"/>
			<path id="Layer" class="s1" d="m37.9 41c1.8 0 3.1-1.1 3.1-2.7 0-1.8-1.5-2.3-2.8-2.7-1.2-0.4-1.6-0.6-1.6-1.1 0-0.5 0.5-0.8 1.1-0.8 0.7 0 1.6 0.3 2.3 0.8l0.8-1.5c-0.9-0.6-2-1-3.1-1-1.7 0-3 1.1-3 2.7 0 1.5 1.1 2.1 2.9 2.6 0.9 0.2 1.6 0.4 1.6 1.1 0 0.5-0.6 0.9-1.3 0.9-1 0-1.9-0.4-2.7-1l-0.8 1.4c0.9 0.8 2.2 1.3 3.5 1.3z"/>
		</g>
	</g>
</svg>