<svg width="40" height="40" xmlns="http://www.w3.org/2000/svg" xmlns:xlink="http://www.w3.org/1999/xlink" xml:space="preserve" overflow="hidden"><g transform="translate(-73 -340)"><path d="M113 360C113 348.953 104.047 340 93 340 81.9531 340 73 348.953 73 360 73 371.047 81.9531 380 93 380 93.1172 380 93.2344 380 93.3516 379.992L93.3516 364.43 89.0547 364.43 89.0547 359.422 93.3516 359.422 93.3516 355.734C93.3516 351.461 95.9609 349.133 99.7734 349.133 101.602 349.133 103.172 349.266 103.625 349.328L103.625 353.797 101 353.797C98.9297 353.797 98.5234 354.781 98.5234 356.227L98.5234 359.414 103.484 359.414 102.836 364.422 98.5234 364.422 98.5234 379.227C106.883 376.828 113 369.133 113 360Z" fill="#03DCC8"/></g></svg>