<svg width="41" height="40" xmlns="http://www.w3.org/2000/svg" xmlns:xlink="http://www.w3.org/1999/xlink" xml:space="preserve" overflow="hidden"><g transform="translate(-263 -339)"><path d="M23.8281 20C23.8281 22.1143 22.1142 23.8281 20 23.8281 17.8858 23.8281 16.1719 22.1142 16.1719 20 16.1719 17.8858 17.8858 16.1719 20 16.1719 22.1142 16.1719 23.8281 17.8858 23.8281 20Z" fill="#03DCC8" transform="matrix(1.025 0 0 1 263 339)"/><path d="M28.9527 13.227C28.7686 12.7281 28.475 12.2769 28.0936 11.9064 27.7232 11.5249 27.2719 11.2314 26.773 11.0473 26.3684 10.8902 25.7605 10.7031 24.6408 10.6522 23.4295 10.597 23.0664 10.585 20 10.585 16.9333 10.585 16.5702 10.5966 15.3592 10.6519 14.2395 10.7031 13.6312 10.8902 13.227 11.0473 12.728 11.2313 12.2768 11.5249 11.9064 11.9064 11.5249 12.2769 11.2313 12.7281 11.047 13.227 10.8899 13.6316 10.7028 14.2398 10.6519 15.3595 10.5966 16.5705 10.5847 16.9336 10.5847 20.0003 10.5847 23.0667 10.5966 23.4298 10.6519 24.6411 10.7028 25.7608 10.8899 26.3687 11.047 26.7734 11.2312 27.2722 11.5247 27.7234 11.9061 28.0939 12.2765 28.4754 12.7278 28.769 13.2266 28.953 13.6313 29.1104 14.2395 29.2975 15.3592 29.3484 16.5702 29.4037 16.933 29.4153 19.9997 29.4153 23.0667 29.4153 23.4298 29.4037 24.6405 29.3484 25.7602 29.2975 26.3684 29.1104 26.773 28.953 27.7746 28.5666 28.5663 27.775 28.9527 26.7734 29.1098 26.3687 29.2969 25.7609 29.3481 24.6411 29.4034 23.4298 29.415 23.0667 29.415 20.0003 29.415 16.9336 29.4034 16.5705 29.3481 15.3595 29.2972 14.2398 29.1101 13.6316 28.9527 13.227ZM20 25.8973C16.7429 25.8973 14.1025 23.2571 14.1025 20 14.1025 16.7429 16.7429 14.1028 20 14.1028 23.2569 14.1028 25.8972 16.7429 25.8972 20 25.8972 23.2571 23.2569 25.8972 20 25.8972ZM26.1304 15.2478C25.3693 15.2478 24.7523 14.6307 24.7523 13.8697 24.7523 13.1087 25.3693 12.4915 26.1304 12.4915 26.8915 12.4915 27.5085 13.1085 27.5085 13.8696 27.5082 14.6307 26.8915 15.2477 26.1304 15.2477Z" fill="#03DCC8" transform="matrix(1.025 0 0 1 263 339)"/><path d="M20 0C8.95602 0 0 8.95602 0 20 0 31.044 8.95602 40 20 40 31.044 40 40 31.044 40 20 40 8.95602 31.044 0 20 0ZM31.4151 24.7348C31.3596 25.9573 31.1652 26.792 30.8813 27.5226 30.2847 29.0652 29.0652 30.2847 27.5226 30.8813 26.7923 31.1652 25.9573 31.3592 24.7351 31.4151 23.5105 31.4709 23.1192 31.4844 20.0003 31.4844 16.8811 31.4844 16.4902 31.4709 15.2652 31.4151 14.043 31.3592 13.208 31.1652 12.4777 30.8813 11.7113 30.593 11.017 30.1409 10.4434 29.5566 9.85928 28.983 9.40729 28.2888 9.11899 27.5226 8.83516 26.7923 8.64078 25.9573 8.58523 24.7351 8.52875 23.5101 8.51562 23.1189 8.51562 20 8.51562 16.8811 8.52875 16.4898 8.58492 15.2652 8.64039 14.0427 8.83453 13.208 9.11836 12.4774 9.40675 11.7111 9.85894 11.0169 10.4434 10.4434 11.0169 9.85908 11.7111 9.40696 12.4774 9.11867 13.208 8.83484 14.0427 8.64078 15.2652 8.58492 16.4898 8.52906 16.8811 8.51562 20 8.51562 23.1189 8.51562 23.5102 8.52906 24.7348 8.58516 25.9573 8.64078 26.792 8.83484 27.5226 9.11836 28.289 9.40681 28.9833 9.85899 29.557 10.4434 30.1411 11.017 30.5931 11.7111 30.8813 12.4774 31.1655 13.208 31.3595 14.0427 31.4154 15.2652 31.4713 16.4898 31.4844 16.8811 31.4844 20 31.4844 23.1189 31.4713 23.5102 31.4151 24.7348Z" fill="#03DCC8" transform="matrix(1.025 0 0 1 263 339)"/></g></svg>