<svg width="40" height="40" xmlns="http://www.w3.org/2000/svg" xmlns:xlink="http://www.w3.org/1999/xlink" xml:space="preserve" overflow="hidden"><g transform="translate(-563 -207)"><path d="M583 207C571.956 207 563 215.956 563 227 563 238.044 571.956 247 583 247 594.044 247 603 238.044 603 227 603 215.956 594.044 207 583 207ZM577.188 237.234 572.317 237.234 572.317 222.58 577.188 222.58ZM574.753 220.579 574.721 220.579C573.087 220.579 572.03 219.454 572.03 218.048 572.03 216.61 573.119 215.516 574.785 215.516 576.452 215.516 577.477 216.61 577.509 218.048 577.509 219.454 576.452 220.579 574.753 220.579ZM594.752 237.234 589.881 237.234 589.881 229.395C589.881 227.425 589.176 226.081 587.414 226.081 586.068 226.081 585.267 226.987 584.915 227.862 584.786 228.175 584.755 228.613 584.755 229.051L584.755 237.234 579.884 237.234C579.884 237.234 579.948 223.955 579.884 222.58L584.755 222.58 584.755 224.655C585.402 223.657 586.56 222.236 589.144 222.236 592.349 222.236 594.752 224.331 594.752 228.832Z" fill="#03DCC8"/></g></svg>