<svg width="41" height="40" xmlns="http://www.w3.org/2000/svg" xmlns:xlink="http://www.w3.org/1999/xlink" xml:space="preserve" overflow="hidden"><g transform="translate(-398 -221)"><path d="M24.1879 26.8241C23.292 27.72 21.3721 28.0398 20.004 28.0398 18.6319 28.0398 16.716 27.72 15.82 26.8241 15.6107 26.6131 15.27 26.6118 15.0591 26.8211 15.0581 26.8221 15.0571 26.8231 15.0562 26.8241 14.8452 27.0334 14.8439 27.374 15.0533 27.585 15.0542 27.5859 15.0552 27.5869 15.0562 27.5879 16.4762 29.0079 19.2041 29.1199 20.004 29.1199 20.8038 29.1199 23.5278 29.0079 24.9521 27.5879 25.1599 27.3757 25.1599 27.0363 24.9521 26.8241 24.7426 26.613 24.4017 26.6118 24.1906 26.8213 24.1897 26.8222 24.1888 26.8231 24.1879 26.8241ZM17.5 22.0841C17.5 20.9359 16.5641 20 15.4159 20 14.2682 20 13.3319 20.9359 13.3319 22.0841 13.3319 23.2318 14.2682 24.1681 15.4159 24.1681 16.5641 24.1681 17.5 23.2322 17.5 22.0841Z" fill="#03DCC8" transform="matrix(1.025 0 0 1 398 221)"/><path d="M20 0C8.95602 0 0 8.95602 0 20 0 31.044 8.95602 40 20 40 31.044 40 40 31.044 40 20 40 8.95602 31.044 0 20 0ZM31.604 22.6678C31.648 22.9559 31.672 23.248 31.672 23.544 31.672 28.032 26.448 31.6681 20.004 31.6681 13.5599 31.6681 8.33586 28.032 8.33586 23.544 8.33586 23.244 8.36 22.948 8.40391 22.6599 7.38797 22.204 6.68 21.1841 6.68 20 6.68 18.392 7.98398 17.0841 9.59594 17.0841 10.3799 17.0841 11.088 17.392 11.612 17.8961 13.6359 16.4362 16.4362 15.5039 19.552 15.4239 19.552 15.3839 21.008 8.44789 21.008 8.44789 21.0357 8.31299 21.1164 8.19487 21.232 8.12008 21.348 8.04414 21.488 8.02008 21.6242 8.04813L26.4722 9.07992C26.8121 8.39203 27.5119 7.91594 28.3319 7.91594 29.484 7.91594 30.4159 8.84797 30.4159 10 30.4159 11.152 29.4839 12.0841 28.3319 12.0841 27.2159 12.0841 26.312 11.2039 26.26 10.1001L21.9198 9.17602 20.592 15.4281C23.652 15.5359 26.4002 16.4639 28.392 17.9041 28.916 17.3962 29.628 17.0841 30.4159 17.0841 32.0282 17.0841 33.3319 18.388 33.3319 20 33.3319 21.192 32.6159 22.2119 31.604 22.6678Z" fill="#03DCC8" transform="matrix(1.025 0 0 1 398 221)"/><path d="M24.5841 20C23.4359 20 22.5 20.9359 22.5 22.0841 22.5 23.2318 23.4359 24.1681 24.5841 24.1681 25.7318 24.1681 26.6681 23.2318 26.6681 22.0841 26.6681 20.9359 25.7322 20 24.5841 20Z" fill="#03DCC8" transform="matrix(1.025 0 0 1 398 221)"/></g></svg>