<svg width="40" height="40" xmlns="http://www.w3.org/2000/svg" xmlns:xlink="http://www.w3.org/1999/xlink" xml:space="preserve" overflow="hidden"><g transform="translate(-69 -223)"><path d="M89 263C100.048 263 109 254.048 109 243 109 231.952 100.048 223 89 223 77.9517 223 69 231.952 69 243 69 254.048 77.9517 263 89 263ZM78.1517 242.567 97.435 235.132C98.33 234.808 99.1117 235.35 98.8217 236.703L98.8233 236.702 95.54 252.17C95.2967 253.267 94.645 253.533 93.7333 253.017L88.7333 249.332 86.3217 251.655C86.055 251.922 85.83 252.147 85.3133 252.147L85.6683 247.058 94.935 238.687C95.3383 238.332 94.845 238.132 94.3133 238.485L82.8617 245.695 77.925 244.155C76.8533 243.815 76.83 243.083 78.1517 242.567Z" fill="#03DCC8"/></g></svg>