<svg width="40" height="40" xmlns="http://www.w3.org/2000/svg" xmlns:xlink="http://www.w3.org/1999/xlink" xml:space="preserve" overflow="hidden"><g transform="translate(-147 -78)"><path d="M167 78C155.955 78 147 86.9547 147 98 147 109.045 155.955 118 167 118 178.045 118 187 109.045 187 98 187 86.9547 178.045 78 167 78Z" fill="#03DCC8"/><path d="M169.188 96.1901 177.75 86.2377 175.721 86.2377 168.287 94.8792 162.349 86.2377 155.501 86.2377 164.48 99.3052 155.501 109.742 157.53 109.742 165.38 100.616 171.651 109.742 178.499 109.742 169.187 96.1901ZM158.261 87.7651 161.377 87.7651 175.722 108.284 172.605 108.284Z" fill="#26262E"/></g></svg>