<svg width="40" height="40" xmlns="http://www.w3.org/2000/svg" xmlns:xlink="http://www.w3.org/1999/xlink" xml:space="preserve" overflow="hidden"><g transform="translate(-384 -104)"><path d="M401.509 127.747 408.015 124 401.509 120.253Z" fill="#03DCC8"/><path d="M404 104C392.956 104 384 112.956 384 124 384 135.044 392.956 144 404 144 415.044 144 424 135.044 424 124 424 112.956 415.044 104 404 104ZM416.497 124.02C416.497 124.02 416.497 128.077 415.982 130.032 415.694 131.103 414.85 131.947 413.779 132.235 411.824 132.75 404 132.75 404 132.75 404 132.75 396.197 132.75 394.221 132.215 393.15 131.927 392.306 131.082 392.018 130.012 391.503 128.076 391.503 124 391.503 124 391.503 124 391.503 119.944 392.018 117.988 392.306 116.918 393.171 116.053 394.221 115.765 396.176 115.25 404 115.25 404 115.25 404 115.25 411.823 115.25 413.779 115.785 414.85 116.073 415.694 116.918 415.982 117.988 416.518 119.944 416.497 124.02 416.497 124.02Z" fill="#03DCC8"/></g></svg>